<?xml version="1.0" encoding="utf-8"?>
<!-- Generator: Adobe Illustrator 19.2.1, SVG Export Plug-In . SVG Version: 6.00 Build 0)  -->
<svg version="1.1" id="layer" xmlns="http://www.w3.org/2000/svg" xmlns:xlink="http://www.w3.org/1999/xlink" x="0px" y="0px"
	 viewBox="0 0 652 652" style="enable-background:new 0 0 652 652;" xml:space="preserve">
<style type="text/css">
	.st0{fill:#7D7E83;}
	.st1{fill:#FFF;}
</style>
<path class="st0" d="M175.6,383v7.7H141v16.4h24.3v7.7H141v18h34.6v7.7h-42.8V383H175.6z M242.9,440.6h42.8v-7.7h-34.6v-18h24.3
	v-7.7h-24.3v-16.4l34.6,0V383h-42.8V440.6z M205.9,439.6l24.3-56.6l-8.8,0l-15.5,39.2L190.4,383l-8.8,0L205.9,439.6z M301.7,401.4
	l38.6,38.3V383h-8.2v39.1l-38.6-38.3v56.8h8.2V401.4z M371.6,390.7h17.5V383h-43.3v7.7h17.5v49.8h8.2V390.7z M325.3,483.6h26.8v-4.8
	h-21.6v-11.3h15.2v-4.8h-15.2v-10.2h21.6v-4.8h-26.8V483.6z M133.6,476.3c1.5,2.1,3.5,3.8,5.7,5.2c3,1.9,6.3,2.8,9.8,2.8
	c4.8,0,8.9-1.5,12.2-4.6c3.5-3.3,5.3-7.7,5.3-13.2c0-1.6-0.1-2.9-0.2-3.9h-28.5c0-3.9,1.3-6.9,3.9-9c2.1-1.7,4.5-2.5,7.4-2.5
	c2.2,0,4.3,0.5,6.2,1.4c1.9,0.9,3.6,2.3,5,4.1l4.1-2.7c-1.8-2.3-3.8-4-5.9-5.2c-2.5-1.3-5.4-2-8.8-2c-4.8,0-8.8,1.6-12.1,4.7
	c-3.3,3.1-4.9,6.9-4.9,11.3c0,1.9,0.1,3.4,0.2,4.4h28.4c0,3.5-1,6.4-2.9,8.7c-2.2,2.6-5.2,4-9.2,4c-2.4,0-4.7-0.6-6.7-1.8
	c-1.7-1-3.3-2.5-4.8-4.4L133.6,476.3 M174.4,483.5h26.8v-4.8h-21.6v-11.3h15.2v-4.8h-15.2v-10.2h21.6v-4.8h-26.8V483.5z
	 M233.4,483.5h6l-9.8-16.1c3.7-0.5,6.3-1.7,8-3.6c1.4-1.6,2.1-3.7,2.1-6.3c0-3.1-1-5.6-2.9-7.3c-1.9-1.8-4.8-2.7-8.6-2.7h-17.6v36
	h5.1v-16.1h8.3L233.4,483.5z M228.8,452.4c1.9,0,3.4,0.6,4.4,1.7c0.9,1,1.3,2.1,1.3,3.5c0,1.4-0.4,2.5-1.3,3.4
	c-1,1.1-2.5,1.7-4.4,1.7h-13.1v-10.3H228.8z M258.7,482.9l15.2-35.4l-5.5,0l-9.7,24.5l-9.7-24.5l-5.5,0L258.7,482.9z M277.5,483.5
	h5.1v-36h-5.1V483.5z M284.9,465.6c0,5.3,1.8,9.7,5.6,13.3c3.7,3.6,8.2,5.5,13.6,5.5c2.8,0,5.5-0.5,8-1.7c2.5-1.1,4.7-2.8,6.7-5.1
	l-4.2-3.1c-1.2,1.5-2.8,2.7-4.7,3.6c-1.9,0.9-3.8,1.3-5.8,1.3c-3.7,0-6.9-1.4-9.6-4.1c-2.7-2.7-4.1-6-4.1-9.9c0-3.9,1.4-7.2,4.1-9.9
	c2.7-2.7,5.9-4.1,9.6-4.1c4.3,0,7.8,1.7,10.4,5.1l4.2-3.3c-1.9-2.2-4.2-3.9-6.7-5c-2.5-1.1-5.2-1.7-8-1.7c-5.4,0-10,1.8-13.7,5.4
	C286.7,455.8,284.9,460.3,284.9,465.6 M356.1,476.3c1.5,2.1,3.5,3.8,5.7,5.2c3,1.9,6.3,2.8,9.8,2.8c4.8,0,8.9-1.5,12.2-4.6
	c3.5-3.3,5.3-7.7,5.3-13.2c0-1.6-0.1-2.9-0.2-3.9h-28.5c0-3.9,1.3-6.9,3.9-9c2.1-1.7,4.5-2.5,7.4-2.5c2.2,0,4.3,0.5,6.2,1.4
	c1.9,0.9,3.6,2.3,5,4.1l4.1-2.7c-1.8-2.3-3.8-4-5.9-5.2c-2.5-1.3-5.4-2-8.8-2c-4.8,0-8.8,1.6-12.1,4.7c-3.3,3.1-4.9,6.9-4.9,11.3
	c0,1.9,0.1,3.4,0.2,4.4H384c0,3.5-1,6.4-2.9,8.7c-2.2,2.6-5.2,4-9.2,4c-2.4,0-4.6-0.6-6.7-1.8c-1.7-1-3.3-2.5-4.8-4.4L356.1,476.3
	 M420.2,178.4l0.1-0.2v-38.6h-23.6V210c2.6-8.6,7.2-16.4,13.6-23.2C413.3,183.6,416.7,180.8,420.2,178.4"/>
<path class="st1" d="M519.5,243.8c0-5.1-0.2-8.8-0.5-11c-0.3-2.2-0.8-4.6-1.5-7.1H429c1-8.3,4.3-14.9,9.8-20
	c5.5-5,13.4-7.6,23.7-7.6c5.8,0,10.9,1,15.3,3c4.4,2,9.4,6,15,12.2l18.3-17.1c-5.1-6-11.1-10.7-17.8-14.1c-8.9-4.6-19-6.9-30.3-6.9
	c-18.3,0-33.3,6.1-44.9,18.3c-10.9,11.6-16.3,25.8-16.3,42.7c0,2.6,0.1,4.8,0.4,6.6c0.2,1.7,0.6,3.7,1.1,6.1h89
	c0,9.6-3.5,17.1-10.4,22.6c-6,4.6-13.5,6.9-22.6,6.9c-7.6,0-14.7-1.7-21.3-5c-5-2.5-9.3-5.6-12.9-9.4l-18.5,15.8h-17.4V76.8
	L261,207.4L132.8,77v297.2h53.3v-180L261,273l74.8-78.9v85.6v51v43.4h53.3v-43.4h15.5v114.8c0,26.3-6.9,46.7-20.7,61.1
	c-12.6,12.9-28.7,19.3-48.2,19.3c-13.8,0-26.3-3.8-37.7-11.5c-8-5.2-14.9-12.3-20.7-21.1H217c0,0,13.5,35.2,50.3,63.4
	c20.2,13.5,43.6,20.2,70.3,20.2c37.3,0,67-12.1,89.1-36.3c20.8-23,31.2-52.4,31.2-88.2V302.8c0.1,0,0.1,0,0.2,0
	c19.2,0,34.5-6.1,45.9-18.3C514.3,273.3,519.5,259.7,519.5,243.8"/>
</svg>
